<mxfile host="app.diagrams.net" agent="Mozilla/5.0 (Macintosh; Intel Mac OS X 10_15_7) AppleWebKit/537.36 (KHTML, like Gecko) Chrome/137.0.0.0 Safari/537.36" version="27.2.0">
  <diagram name="第 1 页" id="XoQ4u0rslbW4PwuMjwnF">
    <mxGraphModel dx="752" dy="1126" grid="1" gridSize="10" guides="1" tooltips="1" connect="1" arrows="1" fold="1" page="1" pageScale="1" pageWidth="827" pageHeight="1169" math="0" shadow="0">
      <root>
        <mxCell id="0" />
        <mxCell id="1" parent="0" />
        <mxCell id="anOWaKcjxE8dcAlv_pdt-1" value="Client" style="swimlane;fontStyle=1;align=center;verticalAlign=top;childLayout=stackLayout;horizontal=1;startSize=26;horizontalStack=0;resizeParent=1;resizeParentMax=0;resizeLast=0;collapsible=1;marginBottom=0;whiteSpace=wrap;html=1;" vertex="1" parent="1">
          <mxGeometry x="60" y="520" width="160" height="34" as="geometry" />
        </mxCell>
        <mxCell id="anOWaKcjxE8dcAlv_pdt-3" value="" style="line;strokeWidth=1;fillColor=none;align=left;verticalAlign=middle;spacingTop=-1;spacingLeft=3;spacingRight=3;rotatable=0;labelPosition=right;points=[];portConstraint=eastwest;strokeColor=inherit;" vertex="1" parent="anOWaKcjxE8dcAlv_pdt-1">
          <mxGeometry y="26" width="160" height="8" as="geometry" />
        </mxCell>
        <mxCell id="anOWaKcjxE8dcAlv_pdt-5" value="Handler" style="swimlane;fontStyle=1;align=center;verticalAlign=top;childLayout=stackLayout;horizontal=1;startSize=26;horizontalStack=0;resizeParent=1;resizeParentMax=0;resizeLast=0;collapsible=1;marginBottom=0;whiteSpace=wrap;html=1;" vertex="1" parent="1">
          <mxGeometry x="290" y="507" width="160" height="60" as="geometry" />
        </mxCell>
        <mxCell id="anOWaKcjxE8dcAlv_pdt-15" value="" style="endArrow=open;endFill=1;endSize=12;html=1;rounded=0;exitX=0.5;exitY=0;exitDx=0;exitDy=0;entryX=1;entryY=0.5;entryDx=0;entryDy=0;" edge="1" parent="anOWaKcjxE8dcAlv_pdt-5">
          <mxGeometry width="160" relative="1" as="geometry">
            <mxPoint x="80" y="-4" as="sourcePoint" />
            <mxPoint x="160" y="26" as="targetPoint" />
            <Array as="points">
              <mxPoint x="80" y="-31" />
              <mxPoint x="190" y="-31" />
              <mxPoint x="190" y="26" />
            </Array>
          </mxGeometry>
        </mxCell>
        <mxCell id="anOWaKcjxE8dcAlv_pdt-16" value="+successor" style="edgeLabel;html=1;align=center;verticalAlign=middle;resizable=0;points=[];" vertex="1" connectable="0" parent="anOWaKcjxE8dcAlv_pdt-15">
          <mxGeometry x="0.8304" y="2" relative="1" as="geometry">
            <mxPoint x="21" y="6" as="offset" />
          </mxGeometry>
        </mxCell>
        <mxCell id="anOWaKcjxE8dcAlv_pdt-7" value="" style="line;strokeWidth=1;fillColor=none;align=left;verticalAlign=middle;spacingTop=-1;spacingLeft=3;spacingRight=3;rotatable=0;labelPosition=right;points=[];portConstraint=eastwest;strokeColor=inherit;" vertex="1" parent="anOWaKcjxE8dcAlv_pdt-5">
          <mxGeometry y="26" width="160" height="8" as="geometry" />
        </mxCell>
        <mxCell id="anOWaKcjxE8dcAlv_pdt-8" value="+ handleRequest(): void" style="text;strokeColor=none;fillColor=none;align=left;verticalAlign=top;spacingLeft=4;spacingRight=4;overflow=hidden;rotatable=0;points=[[0,0.5],[1,0.5]];portConstraint=eastwest;whiteSpace=wrap;html=1;" vertex="1" parent="anOWaKcjxE8dcAlv_pdt-5">
          <mxGeometry y="34" width="160" height="26" as="geometry" />
        </mxCell>
        <mxCell id="anOWaKcjxE8dcAlv_pdt-9" value="ConcreteHandler" style="swimlane;fontStyle=1;align=center;verticalAlign=top;childLayout=stackLayout;horizontal=1;startSize=26;horizontalStack=0;resizeParent=1;resizeParentMax=0;resizeLast=0;collapsible=1;marginBottom=0;whiteSpace=wrap;html=1;" vertex="1" parent="1">
          <mxGeometry x="290" y="630" width="160" height="34" as="geometry" />
        </mxCell>
        <mxCell id="anOWaKcjxE8dcAlv_pdt-11" value="" style="line;strokeWidth=1;fillColor=none;align=left;verticalAlign=middle;spacingTop=-1;spacingLeft=3;spacingRight=3;rotatable=0;labelPosition=right;points=[];portConstraint=eastwest;strokeColor=inherit;" vertex="1" parent="anOWaKcjxE8dcAlv_pdt-9">
          <mxGeometry y="26" width="160" height="8" as="geometry" />
        </mxCell>
        <mxCell id="anOWaKcjxE8dcAlv_pdt-13" value="" style="endArrow=block;dashed=1;endFill=0;endSize=12;html=1;rounded=0;exitX=0.5;exitY=0;exitDx=0;exitDy=0;entryX=0.506;entryY=1.077;entryDx=0;entryDy=0;entryPerimeter=0;" edge="1" parent="1" source="anOWaKcjxE8dcAlv_pdt-9" target="anOWaKcjxE8dcAlv_pdt-8">
          <mxGeometry width="160" relative="1" as="geometry">
            <mxPoint x="260" y="580" as="sourcePoint" />
            <mxPoint x="420" y="580" as="targetPoint" />
          </mxGeometry>
        </mxCell>
        <mxCell id="anOWaKcjxE8dcAlv_pdt-14" value="" style="endArrow=open;endFill=1;endSize=12;html=1;rounded=0;exitX=1;exitY=0.5;exitDx=0;exitDy=0;entryX=0;entryY=-0.154;entryDx=0;entryDy=0;entryPerimeter=0;" edge="1" parent="1" source="anOWaKcjxE8dcAlv_pdt-1" target="anOWaKcjxE8dcAlv_pdt-8">
          <mxGeometry width="160" relative="1" as="geometry">
            <mxPoint x="260" y="580" as="sourcePoint" />
            <mxPoint x="420" y="580" as="targetPoint" />
          </mxGeometry>
        </mxCell>
      </root>
    </mxGraphModel>
  </diagram>
</mxfile>
